<svg xmlns="http://www.w3.org/2000/svg" viewBox="0 0 600 380" fill="none">
    <rect width="600" height="380" fill="#161618" rx="8"/>
    <rect x="1" y="1" width="598" height="378" stroke="#252528" rx="7"/>
    <!-- Top toolbar -->
    <rect x="20" y="20" width="560" height="36" rx="6" fill="#1F1F22"/>
    <circle cx="38" cy="38" r="4" fill="#FF5F56"/>
    <circle cx="52" cy="38" r="4" fill="#FFBD2E"/>
    <circle cx="66" cy="38" r="4" fill="#27C93F"/>
    <text x="90" y="42" fill="#8E8E93" font-family="monospace" font-size="11">construction-ai-portal.app/analytics/risk-matrix</text>
    <rect x="490" y="27" width="75" height="22" rx="4" fill="#C9A86A" fill-opacity="0.15"/>
    <text x="527" y="41" text-anchor="middle" fill="#DFBA73" font-family="sans-serif" font-size="10" font-weight="600">LIVE SYNC</text>

    <!-- Main Chart / Blueprint Simulation -->
    <rect x="20" y="70" width="370" height="285" rx="6" fill="#1C1C1F" stroke="#28282C"/>
    <path d="M40 280 L110 230 L180 250 L250 170 L320 190 L370 120" stroke="#C9A86A" stroke-width="2.5" fill="none"/>
    <path d="M40 280 L110 230 L180 250 L250 170 L320 190 L370 120 V310 H40 Z" fill="url(#grad1)" fill-opacity="0.12"/>
    <circle cx="250" cy="170" r="5" fill="#DFBA73"/>
    <text x="250" y="155" text-anchor="middle" fill="#DFBA73" font-family="monospace" font-size="10">Risk Delta: -34%</text>

    <!-- Side Panel -->
    <rect x="405" y="70" width="175" height="135" rx="6" fill="#1C1C1F" stroke="#28282C"/>
    <text x="420" y="95" fill="#F4F4F5" font-family="sans-serif" font-size="11" font-weight="600">DeepSeek LLM Insights</text>
    <rect x="420" y="110" width="145" height="6" rx="3" fill="#2A2A2E"/>
    <rect x="420" y="125" width="125" height="6" rx="3" fill="#2A2A2E"/>
    <rect x="420" y="140" width="138" height="6" rx="3" fill="#C9A86A" fill-opacity="0.4"/>
    <text x="420" y="180" fill="#DFBA73" font-family="monospace" font-size="9">Compliance: 98.4%</text>

    <rect x="405" y="220" width="175" height="135" rx="6" fill="#1C1C1F" stroke="#28282C"/>
    <text x="420" y="245" fill="#F4F4F5" font-family="sans-serif" font-size="11" font-weight="600">CAD Blueprint Feed</text>
    <rect x="420" y="260" width="145" height="80" rx="4" fill="#141416" stroke="#252528"/>
    <line x1="435" y1="275" x2="540" y2="275" stroke="#C9A86A" stroke-width="1" stroke-dasharray="2 2"/>
    <line x1="435" y1="300" x2="510" y2="300" stroke="#C9A86A" stroke-width="1"/>
    <line x1="435" y1="320" x2="550" y2="320" stroke="#C9A86A" stroke-width="1" stroke-dasharray="4 4"/>

    <defs>
      <linearGradient id="grad1" x1="0" y1="0" x2="0" y2="1">
        <stop offset="0%" stop-color="#C9A86A"/>
        <stop offset="100%" stop-color="#C9A86A" stop-opacity="0"/>
      </linearGradient>
    </defs>
  </svg>